HIERARCHY
ROOT root
{
	OFFSET	0	13.1	24.9
	CHANNELS 6  Xposition Yposition Zposition Xrotation Yrotation Zrotation
	JOINT spine_1
	{
		OFFSET	0	9.99999	0
		CHANNELS 3  Xrotation Yrotation Zrotation
		JOINT spine_2
		{
			OFFSET	0	112	-10
			CHANNELS 3  Xrotation Yrotation Zrotation
			JOINT spine_3
			{
				OFFSET	0	206.5	19.3
				CHANNELS 3  Xrotation Yrotation Zrotation
				JOINT spine_4
				{
					OFFSET	0	110.4	14.6
					CHANNELS 3  Xrotation Yrotation Zrotation
					JOINT neck_1
					{
						OFFSET	0	71.8	-50.3
						CHANNELS 3  Xrotation Yrotation Zrotation
						JOINT neck_2
						{
							OFFSET	0	86.2	-25.8
							CHANNELS 3  Xrotation Yrotation Zrotation
							JOINT head_ee
							{
								OFFSET	0	179.8	-8.7
								CHANNELS 3  Xrotation Yrotation Zrotation
								End Site
								{
									OFFSET	1	0	0
								}
							}
						}
					}
					JOINT left_clavicle
					{
						OFFSET	-43.2	22.4	-70.8
						CHANNELS 3  Xrotation Yrotation Zrotation
						JOINT left_shoulder
						{
							OFFSET	-93.9	-5.79999	48.7
							CHANNELS 3  Xrotation Yrotation Zrotation
							JOINT left_elbow
							{
								OFFSET	-291.4	-30.8	15.2
								CHANNELS 3  Xrotation Yrotation Zrotation
								JOINT left_lowarm_twist
								{
									OFFSET	-110.7	-3.89999	13.6
									CHANNELS 3  Xrotation Yrotation Zrotation
									JOINT left_hand
									{
										OFFSET	-110.7	-3.89999	13.6
										CHANNELS 3  Xrotation Yrotation Zrotation
										JOINT left_ee
										{
											OFFSET	-80.8	-5.10001	12.1
											CHANNELS 3  Xrotation Yrotation Zrotation
											End Site
											{
												OFFSET	1	0	0
											}
										}
									}
								}
							}
						}
					}
					JOINT right_clavicle
					{
						OFFSET	43.2	22.4	-70.8
						CHANNELS 3  Xrotation Yrotation Zrotation
						JOINT right_shoulder
						{
							OFFSET	93.9	-5.79999	48.7
							CHANNELS 3  Xrotation Yrotation Zrotation
							JOINT right_elbow
							{
								OFFSET	291.4	-30.8	15.2
								CHANNELS 3  Xrotation Yrotation Zrotation
								JOINT right_lowarm_twist
								{
									OFFSET	110.7	-3.89999	13.6
									CHANNELS 3  Xrotation Yrotation Zrotation
									JOINT right_hand
									{
										OFFSET	110.7	-3.89999	13.6
										CHANNELS 3  Xrotation Yrotation Zrotation
										JOINT right_ee
										{
											OFFSET	80.8	-5.10001	12.1
											CHANNELS 3  Xrotation Yrotation Zrotation
											End Site
											{
												OFFSET	1	0	0
											}
										}
									}
								}
							}
						}
					}
				}
			}
		}
	}
	JOINT left_hip
	{
		OFFSET	-82.8	-127.5	0.300001
		CHANNELS 3  Xrotation Yrotation Zrotation
		JOINT left_knee
		{
			OFFSET	-28.2	-396.7	2.2
			CHANNELS 3  Xrotation Yrotation Zrotation
			JOINT left_ankle
			{
				OFFSET	-11.7	-411.3	35.4
				CHANNELS 3  Xrotation Yrotation Zrotation
				JOINT left_toes
				{
					OFFSET	0	-60	-88.6
					CHANNELS 3  Xrotation Yrotation Zrotation
					JOINT left_foot_ee
					{
						OFFSET	-22.5	-16.5	-42.2
						CHANNELS 3  Xrotation Yrotation Zrotation
						End Site
						{
							OFFSET	1	0	0
						}
					}
				}
			}
		}
	}
	JOINT right_hip
	{
		OFFSET	82.8	-127.5	0.300001
		CHANNELS 3  Xrotation Yrotation Zrotation
		JOINT right_knee
		{
			OFFSET	28.2	-396.7	2.2
			CHANNELS 3  Xrotation Yrotation Zrotation
			JOINT right_ankle
			{
				OFFSET	11.7	-411.3	35.4
				CHANNELS 3  Xrotation Yrotation Zrotation
				JOINT right_toes
				{
					OFFSET	0	-60	-88.6
					CHANNELS 3  Xrotation Yrotation Zrotation
					JOINT right_foot_ee
					{
						OFFSET	22.5	-16.5	-42.2
						CHANNELS 3  Xrotation Yrotation Zrotation
						End Site
						{
							OFFSET	1	0	0
						}
					}
				}
			}
		}
	}
}
MOTION
Frames: 12
Frame Time: 0.02
3613.99 748.989 -685.312 -14.148 53.8486 11.2626 2.81188 0.256426 1.2521 2.81274 0.176239 1.26587 2.81643 -0.0310003 1.2777 2.8142 0.171162 1.26657 -2.03235 11.7972 -3.74418 -1.61879 24.2727 -2.45034 -0.0 0.0 -0.0 0.238653 17.2711 2.39233 -22.3232 -49.2721 60.3777 0.652724 -17.9182 0.102905 6.33316 0.179699 -0.788608 -1.04503 -0.513662 -7.22336 -0.0 0.0 -0.0 8.09658 9.64852 -15.7297 -11.9683 21.9959 -68.4633 1.1293 29.2226 -0.294407 29.5436 -0.0802371 3.7316 0.126464 -2.8998 -2.05454 0.0 0.0 0.0 5.19309 -2.63456 -2.14545 1.02158 -0.0434135 -0.150753 32.2573 20.2159 -4.25607 -40.0976 0.0 0.0 -0.0 0.0 -0.0 11.2234 22.8139 1.60834 -8.26941 -0.25112 -1.24316 21.4398 -22.3304 3.01455 -21.5618 0.0 0.0 0.0 0.0 0.0 
3613.32 749.134 -688.47 -13.8182 53.5499 10.8531 2.77772 0.277622 1.32019 2.77867 0.19306 1.33517 2.78296 -0.0264047 1.3488 2.78047 0.186925 1.33605 -1.8615 12.473 -3.90649 -1.3864 25.6066 -2.5842 -0.0 0.0 -0.0 0.18091 17.6836 2.3481 -23.7175 -51.2788 60.4072 0.577372 -15.9614 0.0809465 7.14974 0.196489 -0.891567 -1.1115 -0.97808 -7.87789 -0.0 0.0 -0.0 8.22093 8.98103 -16.0125 -12.1371 22.7188 -67.8497 1.26303 32.0315 -0.362557 28.8964 -0.0991426 3.6511 0.607339 -0.641441 -4.3232 0.0 0.0 0.0 5.45118 -5.2966 -2.34102 -0.918298 0.0367212 0.136139 32.5122 19.9525 -4.27856 -40.1288 0.0 0.0 -0.0 0.0 -0.0 10.1935 23.9835 1.54127 -6.21508 -0.205545 -0.931219 19.9997 -22.193 2.82758 -19.8621 0.0 0.0 0.0 0.0 0.0 
3613.62 746.532 -691.64 -13.8902 53.1392 10.6152 2.79207 0.254177 1.26881 2.79295 0.172931 1.28241 2.79662 -0.0373894 1.29347 2.79432 0.167342 1.28315 -2.09947 12.3747 -3.63203 -1.66479 25.2363 -2.24771 -0.0 0.0 -0.0 0.0880478 18.9219 2.34283 -24.6024 -52.093 60.3348 0.518772 -14.4124 0.0655939 7.54735 0.204132 -0.941783 -1.27146 -1.18096 -9.05131 -0.0 0.0 -0.0 8.66235 9.08062 -16.9533 -11.9 22.8734 -66.9376 1.27567 32.2885 -0.369284 28.1963 -0.118572 3.56377 0.727482 0.378664 -4.70867 0.0 0.0 0.0 5.37189 -6.29339 -2.53744 -1.43449 0.0564018 0.212912 33.531 19.753 -4.38309 -40.1303 0.0 0.0 -0.0 0.0 -0.0 9.37578 24.7636 2.20083 -4.4996 -0.158934 -0.672088 21.1322 -21.7009 2.96655 -18.2376 0.0 0.0 0.0 0.0 0.0 
3613.0 746.86 -695.242 -13.9291 53.3751 10.7699 2.79644 0.312241 1.34805 2.79743 0.225837 1.36519 2.80259 0.00154478 1.38373 2.79999 0.22004 1.36613 -2.24798 12.4026 -3.34651 -1.83915 25.0782 -1.90669 -0.0 0.0 -0.0 -0.141243 18.8796 1.99468 -25.4431 -52.7965 60.3795 0.479749 -13.3687 0.0562252 7.82932 0.209341 -0.977425 -1.36215 -1.30582 -9.72308 -0.0 0.0 -0.0 9.11478 9.35196 -17.9207 -11.1313 23.0543 -66.1152 1.2575 31.9186 -0.359629 27.8179 -0.128627 3.51648 0.82555 1.28458 -4.99437 0.0 0.0 0.0 5.38593 -6.90012 -2.809 -2.11951 0.0814484 0.315057 34.2556 19.7654 -4.45909 -40.1615 0.0 0.0 -0.0 0.0 -0.0 8.63509 25.1965 2.11451 -3.39095 -0.124688 -0.505391 21.6768 -21.4581 3.03244 -16.9789 0.0 0.0 0.0 0.0 0.0 
3613.33 748.538 -698.868 -14.4018 54.1743 11.2108 2.65836 0.129177 1.42514 2.65949 0.0382392 1.43047 2.66019 -0.197738 1.41726 2.65739 0.0285501 1.4307 -2.88362 12.5228 -2.45044 -2.55889 24.6661 -0.80355 -0.0 0.0 -0.0 0.13126 18.8864 2.40365 -26.0621 -53.2812 59.9227 0.406789 -11.3934 0.0405794 8.17725 0.215526 -1.02144 -1.43829 -1.39695 -10.2822 -0.0 0.0 -0.0 9.73 9.42799 -19.2517 -10.3886 22.9066 -65.1458 1.20962 30.9294 -0.334667 27.4938 -0.136991 3.47592 0.805349 2.14786 -4.50158 0.0 0.0 0.0 5.81318 -3.4438 -2.72982 -1.44684 0.0568641 0.214751 34.574 20.7138 -4.51137 -40.1441 0.0 0.0 -0.0 0.0 -0.0 8.57197 24.8624 1.66803 -3.94449 -0.14219 -0.58854 20.3791 -22.4347 2.8799 -15.9302 0.0 0.0 0.0 0.0 0.0 
3610.66 744.635 -703.87 -14.6176 54.4085 11.5422 2.95805 0.146525 1.31342 2.95901 0.0626593 1.32008 2.96017 -0.148593 1.31318 2.95777 0.0606463 1.32017 -2.48548 12.0107 -2.74564 -2.14493 23.9229 -1.26611 -0.0 0.0 -0.0 -0.418341 18.5966 1.54443 -26.76 -53.3772 61.0559 0.411737 -11.5283 0.0415626 8.12704 0.21465 -1.01508 -1.35495 -1.5306 -9.77506 -0.0 0.0 -0.0 9.49488 10.1194 -18.7302 -10.4132 23.2681 -65.456 1.21447 31.0303 -0.337159 27.205 -0.144249 3.43975 0.924674 2.41365 -5.19543 0.0 0.0 0.0 5.9022 -4.44661 -3.1304 -2.19612 0.0841736 0.326499 35.0423 20.0955 -4.54688 -40.1262 0.0 0.0 -0.0 0.0 -0.0 8.54895 21.6727 1.13913 -2.81963 -0.105782 -0.419748 22.2583 -26.1617 3.18388 -15.4204 0.0 0.0 0.0 0.0 0.0 
3611.41 744.974 -705.768 -15.3491 54.1046 11.8164 2.94199 0.321112 1.46261 2.94315 0.227402 1.48007 2.94871 -0.0117167 1.49739 2.94566 0.224889 1.48046 -2.53637 12.395 -2.71941 -2.18152 24.6056 -1.17879 -0.0 0.0 -0.0 -1.12595 19.3031 0.57973 -26.174 -53.9591 60.9259 0.447966 -12.5119 0.0491077 8.32787 0.218121 -1.0405 -1.50046 -1.6516 -10.8212 -0.0 0.0 -0.0 9.73442 9.99462 -19.2537 -9.77121 23.5665 -65.3504 1.19604 30.6449 -0.327715 25.9321 -0.174068 3.27988 0.46493 -0.0950702 -3.1457 0.0 0.0 0.0 6.69443 -7.12778 -3.10365 -2.56641 0.0971287 0.381851 34.0031 21.8865 -4.47711 -39.9505 0.0 0.0 -0.0 0.0 -0.0 9.13293 20.6508 0.981704 -3.00012 -0.111847 -0.446785 23.5232 -27.4641 3.37387 -13.864 0.0 0.0 0.0 0.0 0.0 
3607.94 741.664 -714.37 -14.1797 52.9493 10.3983 2.96637 0.348952 1.54454 2.96766 0.249974 1.56361 2.97414 -0.00205677 1.58346 2.97072 0.248016 1.56392 -1.04195 12.2319 -1.47828 -0.667564 23.1633 -0.174853 -0.0 0.0 -0.0 -2.43771 18.7534 -1.47444 -25.171 -52.7849 64.1063 0.499645 -13.902 0.0609155 8.59381 0.22258 -1.07418 -1.64048 -0.979865 -11.4723 -0.0 0.0 -0.0 10.7199 9.65557 -21.4186 -9.5262 22.5149 -64.9017 1.1978 30.6818 -0.328611 25.6362 -0.18049 3.24263 0.775528 1.84901 -4.42468 0.0 0.0 0.0 6.16398 -4.93369 -3.1872 -2.8138 0.105584 0.418876 34.7644 21.2673 -4.54308 -40.1188 0.0 0.0 -0.0 0.0 -0.0 8.33299 24.4758 1.08708 -4.81698 -0.168142 -0.719924 26.5904 -27.3118 3.7568 -13.285 0.0 0.0 0.0 0.0 0.0 
3607.58 739.861 -717.368 -14.6331 53.5572 11.1173 2.92634 0.30822 1.44073 2.92747 0.215928 1.45742 2.93266 -0.0198436 1.47319 2.9297 0.213043 1.45784 -1.55458 13.0287 -1.36591 -1.16877 24.579 0.131322 -0.0 0.0 -0.0 -3.11697 18.1595 -2.61946 -26.0835 -53.5726 64.2792 0.622377 -17.135 0.0937657 9.41741 0.235397 -1.1786 -1.46025 -1.29344 -10.3851 -0.0 0.0 -0.0 10.2705 11.4131 -20.4052 -9.62568 23.7023 -65.3198 1.22327 31.2135 -0.341712 25.568 -0.181943 3.23404 1.37118 4.02704 -7.54743 0.0 0.0 0.0 5.62365 -8.46623 -4.23048 -2.31017 0.0882014 0.343538 35.648 21.5005 -4.63943 -40.13 0.0 0.0 -0.0 0.0 -0.0 8.11864 24.8957 0.552614 -4.49602 -0.158828 -0.671548 25.8613 -25.5102 3.62521 -12.286 0.0 0.0 0.0 0.0 0.0 
3605.49 740.15 -719.117 -14.1358 53.3836 10.3587 2.84613 0.346255 1.56141 2.84746 0.24621 1.58027 2.85393 -0.0117811 1.59928 2.85044 0.240912 1.58108 -1.44384 13.6556 -0.876069 -1.0369 25.31 0.701007 -0.0 0.0 -0.0 -3.69281 18.6923 -3.38786 -21.6714 -54.2228 67.7221 0.458795 -12.8045 0.0514807 10.0371 0.24405 -1.25729 -1.15718 -0.0414336 -7.76961 -0.0 0.0 -0.0 10.6472 11.2063 -21.2421 -9.44344 23.1842 -64.7407 1.17821 30.2688 -0.318674 24.784 -0.197909 3.13516 1.20846 3.88693 -6.50204 0.0 0.0 0.0 6.21727 -8.15562 -3.98188 -4.28865 0.152666 0.640319 36.7464 22.792 -4.78272 -40.129 0.0 0.0 -0.0 0.0 -0.0 8.74477 20.5853 0.347775 -5.29204 -0.18143 -0.791619 28.3486 -28.0253 3.99047 -11.2677 0.0 0.0 0.0 0.0 0.0 
3604.82 739.406 -718.613 -13.8466 52.8262 9.66837 2.75141 0.391958 1.82212 2.75322 0.275238 1.84335 2.76169 -0.0285431 1.86356 2.75694 0.266079 1.8447 -1.52159 13.9391 -0.272504 -1.12957 25.3576 1.39231 -0.0 0.0 -0.0 -4.49201 17.6534 -4.85408 -19.7964 -55.4104 70.6788 0.460174 -12.8417 0.0517868 10.6998 0.252361 -1.34152 -1.08462 1.45108 -6.6175 -0.0 0.0 -0.0 10.9361 10.8943 -21.8881 -8.53545 22.0355 -64.8287 1.22857 31.3233 -0.34446 24.3611 -0.205959 3.08175 1.13278 2.38622 -6.6117 0.0 0.0 0.0 7.13555 -8.53248 -3.87082 -5.67226 0.191636 0.849077 37.4799 24.0952 -4.89237 -40.1581 0.0 0.0 -0.0 0.0 -0.0 8.52328 20.3697 0.994228 -5.69606 -0.192262 -0.852676 29.3116 -27.5755 4.09367 -10.4546 0.0 0.0 0.0 0.0 0.0 
3605.26 736.191 -721.211 -14.194 52.3875 10.2056 2.86394 0.390138 1.78676 2.86567 0.275671 1.80795 2.87395 -0.0187669 1.82875 2.86938 0.270237 1.80877 -0.640589 14.4788 -0.397077 -0.149424 26.2873 1.13274 -0.0 0.0 -0.0 -5.8114 16.516 -7.23609 -19.1538 -56.4621 72.0856 0.668091 -18.3122 0.107683 10.7624 0.253096 -1.34948 -0.728262 1.79147 -4.0882 -0.0 0.0 -0.0 10.9245 12.4358 -21.8369 -8.94471 23.5981 -64.6891 1.22747 31.3006 -0.343891 23.7836 -0.216315 3.0087 1.45558 3.20143 -8.46346 0.0 0.0 0.0 7.97717 -8.44147 -4.2234 -4.60942 0.16215 0.688634 36.6559 24.4183 -4.81805 -40.2238 0.0 0.0 -0.0 0.0 -0.0 9.57736 19.0769 0.511213 -5.79096 -0.194744 -0.867029 30.4205 -27.515 4.22282 -11.6048 0.0 0.0 0.0 0.0 0.0 
